<svg xmlns="http://www.w3.org/2000/svg" xmlns:xlink="http://www.w3.org/1999/xlink" width="324" height="206pt" viewBox="0 0 242.78 206.12"><g id="graph0" class="graph" transform="scale(1 1) rotate(0) translate(4 202.1186)"><title>G</title><polygon fill="#fff" stroke="transparent" points="-4 4 -4 -202.119 238.782 -202.119 238.782 4 -4 4"/><g id="node1" class="node"><title>meg</title><ellipse cx="108.059" cy="-18" fill="none" stroke="#000" rx="27.829" ry="18"/><text x="108.059" y="-13.8" fill="#000" font-family="Times,serif" font-size="14" text-anchor="middle">meg</text></g><g id="edge1" class="edge"><title>meg-&gt;meg</title><path fill="none" stroke="#000" d="M133.8781,-24.6907C144.6186,-25.1521 153.7231,-22.9219 153.7231,-18 153.7231,-14.77 149.8022,-12.6992 144.071,-11.7876"/><polygon fill="#000" stroke="#000" points="144.031 -8.282 133.878 -11.309 143.703 -15.274 144.031 -8.282"/></g><g id="node2" class="node"><title>jo</title><ellipse cx="27" cy="-99.059" fill="none" stroke="#000" rx="27" ry="18"/><text x="27" y="-94.859" fill="#000" font-family="Times,serif" font-size="14" text-anchor="middle">jo</text></g><g id="edge4" class="edge"><title>meg-&gt;jo</title><path fill="none" stroke="#000" d="M85.5484,-40.5109C74.3158,-51.7435 60.7647,-65.2946 49.5295,-76.5298"/><polygon fill="#000" stroke="#000" points="88.216 -42.793 92.813 -33.247 83.267 -37.843 88.216 -42.793"/><polygon fill="#000" stroke="#000" points="46.775 -74.335 42.178 -83.881 51.724 -79.285 46.775 -74.335"/></g><g id="node3" class="node"><title>amy</title><ellipse cx="189.119" cy="-99.059" fill="none" stroke="#000" rx="27.829" ry="18"/><text x="189.119" y="-94.859" fill="#000" font-family="Times,serif" font-size="14" text-anchor="middle">amy</text></g><g id="edge5" class="edge"><title>meg-&gt;amy</title><path fill="none" stroke="#000" d="M130.5702,-40.5109C141.8028,-51.7435 155.3539,-65.2946 166.5891,-76.5298"/><polygon fill="#000" stroke="#000" points="132.852 -37.843 123.306 -33.247 127.902 -42.793 132.852 -37.843"/><polygon fill="#000" stroke="#000" points="164.394 -79.285 173.94 -83.881 169.344 -74.335 164.394 -79.285"/></g><g id="edge2" class="edge"><title>jo-&gt;jo</title><path fill="none" stroke="#000" d="M52.4435,-105.75C63.0278,-106.2114 72,-103.9812 72,-99.0593 72,-95.8293 68.136,-93.7585 62.4881,-92.847"/><polygon fill="#000" stroke="#000" points="62.599 -89.348 52.444 -92.369 62.266 -96.34 62.599 -89.348"/></g><g id="edge3" class="edge"><title>amy-&gt;amy</title><path fill="none" stroke="#000" d="M214.9374,-105.75C225.6779,-106.2114 234.7825,-103.9812 234.7825,-99.0593 234.7825,-95.8293 230.8615,-93.7585 225.1303,-92.847"/><polygon fill="#000" stroke="#000" points="225.09 -89.341 214.937 -92.369 224.762 -96.334 225.09 -89.341"/></g><g id="node4" class="node"><title>beth</title><ellipse cx="108.059" cy="-180.119" fill="none" stroke="#000" rx="27.829" ry="18"/><text x="108.059" y="-175.919" fill="#000" font-family="Times,serif" font-size="14" text-anchor="middle">beth</text></g><g id="edge6" class="edge"><title>beth-&gt;meg</title><path fill="none" stroke="#000" d="M108.0593,-151.4312C108.0593,-121.8663 108.0593,-76.0476 108.0593,-46.5377"/><polygon fill="#000" stroke="#000" points="104.559 -151.837 108.059 -161.837 111.559 -151.837 104.559 -151.837"/><polygon fill="#000" stroke="#000" points="111.559 -46.464 108.059 -36.464 104.559 -46.464 111.559 -46.464"/></g><g id="edge8" class="edge"><title>beth-&gt;jo</title><path fill="none" stroke="#000" d="M85.5484,-157.6077C74.3158,-146.3751 60.7647,-132.824 49.5295,-121.5888"/><polygon fill="#000" stroke="#000" points="83.267 -160.276 92.813 -164.872 88.216 -155.326 83.267 -160.276"/><polygon fill="#000" stroke="#000" points="51.724 -118.834 42.178 -114.238 46.775 -123.784 51.724 -118.834"/></g><g id="edge7" class="edge"><title>beth-&gt;amy</title><path fill="none" stroke="#000" d="M130.5702,-157.6077C141.8028,-146.3751 155.3539,-132.824 166.5891,-121.5888"/><polygon fill="#000" stroke="#000" points="127.902 -155.326 123.306 -164.872 132.852 -160.276 127.902 -155.326"/><polygon fill="#000" stroke="#000" points="169.344 -123.784 173.94 -114.238 164.394 -118.834 169.344 -123.784"/></g></g></svg>