<svg xmlns="http://www.w3.org/2000/svg" xmlns:xlink="http://www.w3.org/1999/xlink" width="256" height="228" viewBox="0 0 191.95 171.48"><g id="graph0" class="graph" transform="scale(1 1) rotate(0) translate(4 167.4769)"><title>G</title><polygon fill="#fff" stroke="transparent" points="-4 4 -4 -167.477 187.952 -167.477 187.952 4 -4 4"/><g id="node1" class="node"><title>rock</title><ellipse cx="32.482" cy="-18" fill="none" stroke="#000" rx="28.391" ry="18"/><text x="32.482" y="-13.8" fill="#000" font-family="Times,serif" font-size="14" text-anchor="middle">rock</text></g><g id="node2" class="node"><title>paper</title><ellipse cx="32.482" cy="-145.477" fill="none" stroke="#000" rx="32.463" ry="18"/><text x="32.482" y="-141.277" fill="#000" font-family="Times,serif" font-size="14" text-anchor="middle">paper</text></g><g id="edge1" class="edge"><title>rock-&gt;paper</title><path fill="none" stroke="#000" d="M32.4817,-36.2643C32.4817,-57.3738 32.4817,-92.3688 32.4817,-117.0469"/><polygon fill="#000" stroke="#000" points="28.982 -117.246 32.482 -127.246 35.982 -117.246 28.982 -117.246"/></g><g id="node3" class="node"><title>scissors</title><ellipse cx="142.88" cy="-81.738" fill="none" stroke="#000" rx="41.145" ry="18"/><text x="142.88" y="-77.538" fill="#000" font-family="Times,serif" font-size="14" text-anchor="middle">scissors</text></g><g id="edge2" class="edge"><title>paper-&gt;scissors</title><path fill="none" stroke="#000" d="M55.0888,-132.4247C70.6673,-123.4304 91.6418,-111.3208 109.1828,-101.1935"/><polygon fill="#000" stroke="#000" points="111.085 -104.136 117.996 -96.105 107.585 -98.074 111.085 -104.136"/></g><g id="edge3" class="edge"><title>scissors-&gt;rock</title><path fill="none" stroke="#000" d="M117.8288,-67.2752C101.511,-57.8541 80.1226,-45.5055 62.8396,-35.5272"/><polygon fill="#000" stroke="#000" points="64.129 -32.23 53.719 -30.261 60.629 -38.292 64.129 -32.23"/></g></g></svg>